<svg width="24" height="24" viewBox="0 0 24 24" fill="none" xmlns="http://www.w3.org/2000/svg">
<g clip-path="url(#clip0_3050_48)">
<path d="M12 0C8.8174 0 5.76516 1.26428 3.51472 3.51472C1.26428 5.76516 0 8.8174 0 12C0 15.1826 1.26428 18.2348 3.51472 20.4853C5.76516 22.7357 8.8174 24 12 24C15.1826 24 18.2348 22.7357 20.4853 20.4853C22.7357 18.2348 24 15.1826 24 12C24 8.8174 22.7357 5.76516 20.4853 3.51472C18.2348 1.26428 15.1826 0 12 0ZM11.993 5.12C16.473 5.12 17.988 8.145 18.057 9.864H14.818C14.749 8.902 13.921 7.458 11.922 7.458C9.786 7.458 8.408 9.315 8.408 11.584C8.408 13.854 9.786 15.709 11.922 15.709C13.852 15.709 14.68 14.197 15.025 12.684H11.922V11.446H18.431V17.773H15.576V13.784C15.369 15.228 14.474 18.048 10.959 18.048C7.443 18.048 5.375 15.228 5.375 11.722C5.375 8.077 7.651 5.12 11.993 5.12Z" fill="#D87620"/>
</g>
<defs>
<clipPath id="clip0_3050_48">
<rect width="24" height="24" fill="white"/>
</clipPath>
</defs>
</svg>
