<svg width="24" height="24" viewBox="0 0 24 24" fill="none" xmlns="http://www.w3.org/2000/svg">
<g clip-path="url(#clip0_3049_39)">
<path d="M4.21001 9.66701e-06C3.65681 -0.00117675 3.10883 0.106908 2.59751 0.31806C2.08619 0.529212 1.62162 0.839273 1.23044 1.23044C0.839273 1.62162 0.529212 2.08619 0.31806 2.59751C0.106908 3.10883 -0.00117676 3.65681 9.66215e-06 4.21001V19.79C-0.00117676 20.3432 0.106908 20.8912 0.31806 21.4025C0.529212 21.9138 0.839273 22.3784 1.23044 22.7696C1.62162 23.1607 2.08619 23.4708 2.59751 23.682C3.10883 23.8931 3.65681 24.0012 4.21001 24H19.79C20.3432 24.0012 20.8912 23.8931 21.4025 23.682C21.9138 23.4708 22.3784 23.1607 22.7696 22.7696C23.1607 22.3784 23.4708 21.9138 23.682 21.4025C23.8931 20.8912 24.0012 20.3432 24 19.79V18.697C23.863 18.71 23.722 18.717 23.578 18.717C21.001 18.717 19.551 16.571 19.488 13.885C19.4843 13.6488 19.4917 13.4125 19.51 13.177C19.603 11.991 19.985 10.936 20.615 10.155C20.9888 9.68552 21.4663 9.30901 22.01 9.05501C22.478 8.81801 23.137 8.68801 23.674 8.68801H23.697C23.798 8.68801 23.899 8.69201 24 8.69801V4.21101C24.0013 3.65773 23.8933 3.10963 23.6822 2.5982C23.4712 2.08677 23.1611 1.62207 22.7699 1.2308C22.3787 0.83952 21.9141 0.52937 21.4027 0.318155C20.8914 0.106941 20.3433 -0.00117723 19.79 9.66701e-06H4.21001ZM4.40801 5.58301H8.57301L12.161 14.018L15.751 5.58301H19.615V5.72901L19.596 5.73301C18.891 5.89301 18.533 6.13001 18.533 6.98701H18.53L18.533 17.261C18.593 17.937 18.957 18.146 19.596 18.291L19.616 18.295V18.44H14.693V18.295L14.712 18.29C15.351 18.146 15.706 17.937 15.766 17.26V7.26701L11.021 18.417H10.76L6.15001 7.56901V17.014C6.15001 17.871 6.50801 18.108 7.21301 18.267L7.23301 18.271V18.418H4.40501V18.271L4.42401 18.267C5.12901 18.107 5.48901 17.87 5.48901 17.014V6.98701C5.48901 6.13001 5.13101 5.89301 4.42501 5.73301L4.40701 5.72901L4.40801 5.58301ZM23.658 9.25101C22.572 9.27401 21.925 10.574 21.845 12.375H24V9.29801C23.8884 9.26807 23.7735 9.25228 23.658 9.25101ZM21.796 12.883C21.696 14.639 22.656 16.122 24 16.517V12.883H21.796Z" fill="#D87620"/>
</g>
<defs>
<clipPath id="clip0_3049_39">
<rect width="24" height="24" fill="white"/>
</clipPath>
</defs>
</svg>
