<svg width="24" height="24" viewBox="0 0 24 24" fill="none" xmlns="http://www.w3.org/2000/svg">
<path d="M12.1867 24H12.1797C8.59866 23.976 5.84566 22.795 3.99566 20.491C2.35066 18.44 1.50066 15.586 1.47266 12.01V11.993C1.50266 8.414 2.35166 5.563 3.99766 3.511C5.84566 1.205 8.60066 0.024 12.1807 0H12.1947C14.9407 0.02 17.2377 0.725 19.0207 2.098C20.6977 3.388 21.8787 5.228 22.5297 7.565L20.4897 8.134C19.3857 4.174 16.5917 2.15 12.1857 2.119C9.27566 2.141 7.07566 3.055 5.64566 4.836C4.30766 6.504 3.61666 8.914 3.58966 12C3.61666 15.086 4.30766 17.496 5.64666 19.164C7.07666 20.947 9.27766 21.862 12.1867 21.881C14.8097 21.861 16.5447 21.25 17.9867 19.836C19.6337 18.223 19.6047 16.243 19.0767 15.038C18.7667 14.328 18.2037 13.738 17.4427 13.288C17.2507 14.64 16.8207 15.734 16.1587 16.56C15.2727 17.662 14.0187 18.264 12.4287 18.35C11.2267 18.415 10.0677 18.132 9.16966 17.549C8.10666 16.86 7.48466 15.809 7.41766 14.585C7.35266 13.395 7.82566 12.3 8.74766 11.503C9.62766 10.743 10.8667 10.296 12.3307 10.212C13.3395 10.149 14.3522 10.1966 15.3507 10.354C15.2247 9.612 14.9757 9.022 14.6007 8.597C14.0877 8.011 13.2927 7.714 12.2417 7.707H12.2127C11.3687 7.707 10.2207 7.939 9.49166 9.027L7.73466 7.847C8.71466 6.393 10.3027 5.591 12.2127 5.591H12.2567C15.4507 5.611 17.3537 7.566 17.5437 10.979C17.6517 11.025 17.7597 11.073 17.8647 11.121C19.3547 11.821 20.4447 12.882 21.0187 14.191C21.8157 16.011 21.8897 18.981 19.4707 21.349C17.6207 23.159 15.3767 23.977 12.1937 23.999L12.1867 24ZM13.1897 12.31C12.9477 12.31 12.7027 12.317 12.4507 12.331C10.6147 12.434 9.47066 13.277 9.53466 14.474C9.60166 15.73 10.9867 16.313 12.3187 16.241C13.5427 16.176 15.1367 15.698 15.4047 12.531C14.6762 12.3791 13.9337 12.305 13.1897 12.31Z" fill="#D87620"/>
</svg>
